REM DIRINDEX 1\2,1\4,1\3\5,1\3\6,1\3\7
REM DIRNAME folder01,folder02,folder03,folder04,folder05,folder06,folder07
TITLE ""
FILE "CD3Track30.mp3" MP3
  TRACK 01 AUDIO
    TITLE "0:"
    INDEX 01 00:00:00
  TRACK 02 AUDIO
    TITLE "5:cjc081_2843"
    INDEX 01 00:00:25
  TRACK 03 AUDIO
    TITLE "0:"
    INDEX 01 00:01:48
  TRACK 04 AUDIO
    TITLE "6:cjc081_2844"
    INDEX 01 00:02:18
  TRACK 05 AUDIO
    TITLE "0:"
    INDEX 01 00:03:64
  TRACK 06 AUDIO
    TITLE "5:cjc081_2845"
    INDEX 01 00:04:33
  TRACK 07 AUDIO
    TITLE "0:"
    INDEX 01 00:05:54
  TRACK 08 AUDIO
    TITLE "6:cjc081_2846"
    INDEX 01 00:06:20
  TRACK 09 AUDIO
    TITLE "0:"
    INDEX 01 00:09:18
  TRACK 10 AUDIO
    TITLE "5:cjc081_2847"
    INDEX 01 00:09:59
  TRACK 11 AUDIO
    TITLE "0:"
    INDEX 01 00:11:19
  TRACK 12 AUDIO
    TITLE "6:cjc081_2848"
    INDEX 01 00:11:64
  TRACK 13 AUDIO
    TITLE "0:"
    INDEX 01 00:14:27
  TRACK 14 AUDIO
    TITLE "5:cjc081_2849"
    INDEX 01 00:14:70
  TRACK 15 AUDIO
    TITLE "0:"
    INDEX 01 00:16:20
  TRACK 16 AUDIO
    TITLE "6:cjc081_2850"
    INDEX 01 00:16:65
  TRACK 17 AUDIO
    TITLE "0:"
    INDEX 01 00:18:37
  TRACK 18 AUDIO
    TITLE "5:cjc081_2851"
    INDEX 01 00:19:07
  TRACK 19 AUDIO
    TITLE "0:"
    INDEX 01 00:20:18
  TRACK 20 AUDIO
    TITLE "6:cjc081_2852"
    INDEX 01 00:20:63
  TRACK 21 AUDIO
    TITLE "0:"
    INDEX 01 00:22:40
  TRACK 22 AUDIO
    TITLE "5:cjc081_2853"
    INDEX 01 00:23:06
  TRACK 23 AUDIO
    TITLE "0:"
    INDEX 01 00:24:53
  TRACK 24 AUDIO
    TITLE "6:cjc081_2854"
    INDEX 01 00:25:19
  TRACK 25 AUDIO
    TITLE "0:"
    INDEX 01 00:28:66
  TRACK 26 AUDIO
    TITLE "5:cjc081_2855"
    INDEX 01 00:29:33
  TRACK 27 AUDIO
    TITLE "0:"
    INDEX 01 00:30:46
  TRACK 28 AUDIO
    TITLE "6:cjc081_2856"
    INDEX 01 00:31:18
  TRACK 29 AUDIO
    TITLE "0:"
    INDEX 01 00:32:70
  TRACK 30 AUDIO
    TITLE "5:cjc081_2857"
    INDEX 01 00:33:36
  TRACK 31 AUDIO
    TITLE "0:"
    INDEX 01 00:34:61
  TRACK 32 AUDIO
    TITLE "6:cjc081_2858"
    INDEX 01 00:35:33
  TRACK 33 AUDIO
    TITLE "0:"
    INDEX 01 00:37:14
  TRACK 34 AUDIO
    TITLE "5:cjc081_2859"
    INDEX 01 00:37:57
  TRACK 35 AUDIO
    TITLE "0:"
    INDEX 01 00:39:05
  TRACK 36 AUDIO
    TITLE "6:cjc081_2860"
    INDEX 01 00:39:52
  TRACK 37 AUDIO
    TITLE "0:"
    INDEX 01 00:41:26
  TRACK 38 AUDIO
    TITLE "5:cjc081_2861"
    INDEX 01 00:41:67
  TRACK 39 AUDIO
    TITLE "0:"
    INDEX 01 00:43:23
  TRACK 40 AUDIO
    TITLE "6:cjc081_2862"
    INDEX 01 00:43:72
  TRACK 41 AUDIO
    TITLE "0:"
    INDEX 01 00:47:07
  TRACK 42 AUDIO
    TITLE "5:cjc081_2863"
    INDEX 01 00:47:54
  TRACK 43 AUDIO
    TITLE "0:"
    INDEX 01 00:49:00
  TRACK 44 AUDIO
    TITLE "6:cjc081_2864"
    INDEX 01 00:49:47
  TRACK 45 AUDIO
    TITLE "0:"
    INDEX 01 00:52:37
  TRACK 46 AUDIO
    TITLE "5:cjc081_2865"
    INDEX 01 00:53:09
  TRACK 47 AUDIO
    TITLE "0:"
    INDEX 01 00:54:52
  TRACK 48 AUDIO
    TITLE "6:cjc081_2866"
    INDEX 01 00:55:24
  TRACK 49 AUDIO
    TITLE "0:"
    INDEX 01 00:57:41
  TRACK 50 AUDIO
    TITLE "5:cjc081_2867"
    INDEX 01 00:58:05
  TRACK 51 AUDIO
    TITLE "0:"
    INDEX 01 00:59:32
  TRACK 52 AUDIO
    TITLE "6:cjc081_2868"
    INDEX 01 01:00:02
  TRACK 53 AUDIO
    TITLE "0:"
    INDEX 01 01:01:66
  TRACK 54 AUDIO
    TITLE "5:cjc081_2869"
    INDEX 01 01:02:32
  TRACK 55 AUDIO
    TITLE "0:"
    INDEX 01 01:03:55
  TRACK 56 AUDIO
    TITLE "6:cjc081_2870"
    INDEX 01 01:04:25
  TRACK 57 AUDIO
    TITLE "0:"
    INDEX 01 01:07:10
  TRACK 58 AUDIO
    TITLE "5:cjc081_2871"
    INDEX 01 01:07:53
  TRACK 59 AUDIO
    TITLE "0:"
    INDEX 01 01:08:72
  TRACK 60 AUDIO
    TITLE "6:cjc081_2872"
    INDEX 01 01:09:40
  TRACK 61 AUDIO
    TITLE "0:"
    INDEX 01 01:11:07
  TRACK 62 AUDIO
    TITLE "7:cjc081_2873"
    INDEX 01 01:12:44
  TRACK 63 AUDIO
    TITLE "0:"
    INDEX 01 01:23:18
